<svg width="74" height="75" viewBox="0 0 74 75" fill="none" xmlns="http://www.w3.org/2000/svg">
<path d="M46.4401 19.9099C46.8777 20.5375 47.1857 21.2623 47.3251 22.0454H49V23.9546H47.3251C47.1857 24.7377 46.8777 25.4625 46.4401 26.0901L47.6247 27.2748L46.2748 28.6247L45.0901 27.4401C44.4625 27.8777 43.7377 28.1857 42.9546 28.3251V30H41.0454V28.3251C40.2623 28.1857 39.5375 27.8777 38.9099 27.4401L37.7252 28.6247L36.3753 27.2748L37.5599 26.0901C37.1223 25.4625 36.8143 24.7377 36.6749 23.9546H35V22.0454H36.6749C36.8143 21.2623 37.1223 20.5375 37.5599 19.9099L36.3753 18.7252L37.7252 17.3753L38.9099 18.5599C39.5375 18.1223 40.2623 17.8143 41.0454 17.6749V16H42.9546V17.6749C43.7377 17.8143 44.4625 18.1223 45.0901 18.5599L46.2748 17.3753L47.6247 18.7252L46.4401 19.9099Z" stroke="#1E1C1C" stroke-linejoin="round"/>
<path d="M42 25C43.1046 25 44 24.1046 44 23C44 21.8954 43.1046 21 42 21C40.8954 21 40 21.8954 40 23C40 24.1046 40.8954 25 42 25Z" stroke="#1E1C1C" stroke-linejoin="round"/>
<path d="M28.6203 16.3303L24.8503 20.1003L25.3585 22.6415L27.8997 23.1497L31.6697 19.3797L31.6701 19.3795C32.1367 20.4811 32.2483 21.7007 31.9893 22.8686C31.7304 24.0365 31.1137 25.0946 30.2252 25.8956C29.3367 26.6967 28.2206 27.2008 27.0322 27.3377C25.8438 27.4747 24.6423 27.2378 23.5948 26.6599L23.5949 26.6597L18.5559 32.4935C18.1515 32.8975 17.6032 33.1243 17.0315 33.1242C16.4598 33.124 15.9116 32.8968 15.5074 32.4926C15.1032 32.0884 14.876 31.5402 14.8759 30.9685C14.8757 30.3969 15.1025 29.8485 15.5065 29.4441L21.3402 24.4051L21.3401 24.4052C20.7622 23.3578 20.5253 22.1562 20.6623 20.9678C20.7993 19.7794 21.3033 18.6633 22.1044 17.7748C22.9054 16.8863 23.9635 16.2696 25.1314 16.0107C26.2994 15.7517 27.5189 15.8633 28.6205 16.3299L28.6203 16.3303Z" stroke="#1E1C1C" stroke-width="2" stroke-linecap="round" stroke-linejoin="round"/>
<path d="M1 1H73V53H1V1Z" stroke="#1E1C1C" stroke-width="2"/>
<rect x="2" y="44" width="70" height="2" fill="black"/>
<path d="M15 67L8 74H66.5L59.5 67H15Z" stroke="#1E1C1C" stroke-width="2"/>
<rect x="25" y="64" width="26" height="3" stroke="#1E1C1C" stroke-width="2"/>
<rect x="25" y="54" width="2" height="9" fill="black"/>
<rect x="47" y="54" width="2" height="9" fill="black"/>
<circle cx="37" cy="49" r="2" fill="black"/>
</svg>
