<svg width="88" height="80" viewBox="0 0 88 80" fill="none" xmlns="http://www.w3.org/2000/svg">
<path d="M22 69H19.9999V77.5C19.9999 78.1667 19.5 80 21.4999 80H71.4999C73.4999 80 74.9999 80 74.9999 78V53.5H72.9999V78H22V69Z" fill="#1E1C1C"/>
<rect y="33" width="55" height="2" fill="#1E1C1C"/>
<path d="M8.55059 28.7951C8.55059 29.5652 7.96832 30.1393 7.31009 30.1393C6.65186 30.1393 6.06958 29.5652 6.06958 28.7951C6.06958 28.025 6.65186 27.4508 7.31009 27.4508C7.96832 27.4508 8.55059 28.025 8.55059 28.7951Z" stroke="#1E1C1C"/>
<path d="M39.981 6.84426C39.981 7.61435 39.3987 8.18852 38.7405 8.18852C38.0823 8.18852 37.5 7.61435 37.5 6.84426C37.5 6.07418 38.0823 5.5 38.7405 5.5C39.3987 5.5 39.981 6.07418 39.981 6.84426Z" stroke="#1E1C1C"/>
<path d="M14.1202 28.7951C14.1202 29.5652 13.5379 30.1393 12.8797 30.1393C12.2214 30.1393 11.6392 29.5652 11.6392 28.7951C11.6392 28.025 12.2214 27.4508 12.8797 27.4508C13.5379 27.4508 14.1202 28.025 14.1202 28.7951Z" stroke="#1E1C1C"/>
<path d="M45.5506 6.84426C45.5506 7.61435 44.9683 8.18852 44.3101 8.18852C43.6519 8.18852 43.0696 7.61435 43.0696 6.84426C43.0696 6.07418 43.6519 5.5 44.3101 5.5C44.9683 5.5 45.5506 6.07418 45.5506 6.84426Z" stroke="#1E1C1C"/>
<path d="M20.386 28.7951C20.386 29.5652 19.8038 30.1393 19.1455 30.1393C18.4873 30.1393 17.905 29.5652 17.905 28.7951C17.905 28.025 18.4873 27.4508 19.1455 27.4508C19.8038 27.4508 20.386 28.025 20.386 28.7951Z" stroke="#1E1C1C"/>
<path d="M51.8165 6.84426C51.8165 7.61435 51.2342 8.18852 50.576 8.18852C49.9177 8.18852 49.3354 7.61435 49.3354 6.84426C49.3354 6.07418 49.9177 5.5 50.576 5.5C51.2342 5.5 51.8165 6.07418 51.8165 6.84426Z" stroke="#1E1C1C"/>
<path d="M34 19.5V1.99999H82C86 1.99999 86 1.99999 86 4.99999V49L58 49C57 49 57 51 58 51H85C87.5 51 88 51.5 88 47.5V2.5C88 0 87.5 0 85 0H35C32.5 0 32.5 0 32.5 1.5V19.5C32.5 20.5 34 20.5 34 19.5Z" fill="#1E1C1C"/>
<path d="M1 24C1 23.4477 1.44772 23 2 23H53C53.5523 23 54 23.4477 54 24V65C54 65.5523 53.5523 66 53 66H2C1.44772 66 1 65.5523 1 65V24Z" stroke="#1E1C1C" stroke-width="2"/>
<path d="M34 11H86V13H34V11Z" fill="#1E1C1C"/>
<rect x="63" y="30" width="9" height="2" fill="#1E1C1C"/>
<path d="M72.4619 37.9841C72.6368 37.9841 72.8136 37.9258 72.9612 37.8091L80.6848 31.5964C80.8725 31.4451 80.9818 31.2173 80.9818 30.9749C80.9818 30.7344 80.8725 30.5047 80.6848 30.3553L72.994 24.1754C72.6514 23.9002 72.1502 23.9548 71.875 24.2975C71.5998 24.6401 71.6545 25.1413 71.9971 25.4164L78.9152 30.9768L71.9625 36.5681C71.6199 36.8432 71.5652 37.3444 71.8404 37.687C71.9989 37.882 72.2286 37.9841 72.4619 37.9841Z" fill="#1E1C1C"/>
<path d="M16.9673 54.522C16.3006 55.079 15.6595 54.4556 14.7964 54.5306C15.7579 55.4657 20.8859 57.027 21.3181 55.1369C21.6758 53.5726 19.6374 52.5047 18.9446 52.7038C18.2517 52.903 17.6341 53.965 16.9673 54.522Z" fill="#1E1C1C"/>
<path d="M33.649 42.9781C32.9101 43.4352 21.7996 51.864 21.1732 52.294C20.7189 52.6229 21.4536 54.271 22.0598 53.9045C22.666 53.538 32.498 48.1355 36.0485 45.769C37.9126 44.5266 36.2613 41.362 33.649 42.9781Z" fill="#1E1C1C"/>
</svg>
